<svg width="59" height="179" viewBox="0 0 59 179" fill="none" xmlns="http://www.w3.org/2000/svg">
<path d="M31.9012 177.352C32.0946 178.157 32.9045 178.653 33.71 178.46L46.8367 175.307C47.6423 175.114 48.1384 174.304 47.945 173.499C47.7515 172.693 46.9417 172.197 46.1362 172.39L34.4679 175.193L31.6657 163.524C31.4722 162.719 30.6624 162.223 29.8569 162.416C29.0513 162.61 28.5552 163.42 28.7486 164.225L31.9012 177.352ZM0.526698 2.91379C58.6702 31.1504 72.5638 110.144 32.0807 176.218L34.6387 177.785C75.7003 110.767 62.118 29.4897 1.83724 0.215186L0.526698 2.91379Z" fill="#0000FF"/>
</svg>
